<svg xmlns="http://www.w3.org/2000/svg" width="21.298" height="21.298" viewBox="0 0 21.298 21.298">
  <g id="noun_call_539937" transform="translate(0.65 0.65)">
    <g id="Group_27347" data-name="Group 27347" transform="translate(0)">
      <path id="Path_53616" data-name="Path 53616" d="M15,20c-1.71,0-3.228-.211-5.883-2.866L2.866,10.882C.211,8.228,0,6.709,0,5,0,1.671,3.2,0,5,0a1.247,1.247,0,0,1,.884.366l3.75,3.75A1.247,1.247,0,0,1,10,5,4.693,4.693,0,0,1,9.178,7.41l3.411,3.411A4.684,4.684,0,0,1,15,10a1.244,1.244,0,0,1,.884.366l3.75,3.75A1.244,1.244,0,0,1,20,15C20,16.793,18.327,20,15,20ZM4.558,2.577A2.685,2.685,0,0,0,2.5,5c0,1.107,0,1.982,2.133,4.116l6.249,6.249C13.016,17.5,13.891,17.5,15,17.5a2.685,2.685,0,0,0,2.422-2.058l-2.84-2.84a3.227,3.227,0,0,0-1.2.784,1.248,1.248,0,0,1-1.767,0l-5-5a1.248,1.248,0,0,1,0-1.767,3.207,3.207,0,0,0,.782-1.2l-2.84-2.84ZM20,8.749H17.5A6.256,6.256,0,0,0,11.249,2.5V0A8.759,8.759,0,0,1,20,8.749Z" transform="translate(0)" fill="#08054e" stroke="#fff" stroke-width="1.3"/>
    </g>
  </g>
</svg>
