<svg xmlns="http://www.w3.org/2000/svg" width="20" height="20" viewBox="0 0 20 20">
  <g id="Group_27122" data-name="Group 27122" transform="translate(-17 -333)">
    <rect id="Rectangle_7841" data-name="Rectangle 7841" width="20" height="20" transform="translate(17 333)" fill="none"/>
    <g id="noun_profile_593192" transform="translate(7.609 323.328)">
      <path id="Path_53234" data-name="Path 53234" d="M19.391,10.109a9.282,9.282,0,1,0,9.282,9.282A9.292,9.292,0,0,0,19.391,10.109Zm0,17.865a8.584,8.584,0,1,1,8.584-8.584A8.593,8.593,0,0,1,19.391,27.974Zm3.141-6.834H16.25a2.679,2.679,0,0,0-2.676,2.676.35.35,0,0,0,.1.243l1.7,1.755a.349.349,0,0,0,.5-.486l-1.6-1.649a1.98,1.98,0,0,1,1.973-1.841h6.282A1.98,1.98,0,0,1,24.5,23.68l-1.4,1.447a.349.349,0,0,0,.5.486l1.507-1.553a.349.349,0,0,0,.1-.243A2.679,2.679,0,0,0,22.532,21.141Zm-3.257-1h.233a2.679,2.679,0,0,0,2.676-2.676V15.57a2.679,2.679,0,0,0-2.676-2.676h-.233A2.679,2.679,0,0,0,16.6,15.57v1.89A2.679,2.679,0,0,0,19.274,20.136ZM17.3,15.57a1.98,1.98,0,0,1,1.978-1.978h.233a1.98,1.98,0,0,1,1.978,1.978v1.89a1.98,1.98,0,0,1-1.978,1.978h-.233A1.98,1.98,0,0,1,17.3,17.461Z" fill="#08054e" stroke="#08054e" stroke-width="0.4"/>
    </g>
  </g>
</svg>
